<svg width="17" height="17" viewBox="0 0 17 17" fill="none" xmlns="http://www.w3.org/2000/svg">
<path fill-rule="evenodd" clip-rule="evenodd" d="M4.91675 0.25L16.1667 0.25C16.3657 0.25 16.5564 0.329018 16.6971 0.46967C16.8377 0.610322 16.9167 0.801088 16.9167 1V12.25C16.9167 12.6642 16.581 13 16.1667 13C15.7525 13 15.4167 12.6642 15.4167 12.25V2.81066L1.69708 16.5303C1.40418 16.8232 0.929311 16.8232 0.636418 16.5303C0.343525 16.2374 0.343525 15.7626 0.636418 15.4697L14.3561 1.75L4.91675 1.75C4.50253 1.75 4.16675 1.41421 4.16675 1C4.16675 0.585787 4.50253 0.25 4.91675 0.25Z" fill="#141414"/>
</svg>
