<svg width="64" height="64" viewBox="0 0 64 64" fill="none" xmlns="http://www.w3.org/2000/svg">
<path d="M0 21.9995C0 30.8739 5.2545 38.5211 12.8221 41.9995H0C0 54.1498 9.84974 63.9995 22 63.9995C30.8744 63.9995 38.5216 58.745 42 51.1775V63.9995C54.1503 63.9995 64 54.1498 64 41.9995C64 33.1251 58.7455 25.478 51.1779 21.9995H64C64 9.84925 54.1503 -0.000488281 42 -0.000488281C33.1256 -0.000488281 25.4784 5.25402 22 12.8216V-0.000488281C9.84974 -0.000488281 0 9.84925 0 21.9995Z" fill="#404040"/>
<path d="M42 31.9996C42 37.5225 37.5228 41.9996 32 41.9996C26.4772 41.9996 22 37.5225 22 31.9996C22 26.4768 26.4772 21.9996 32 21.9996C37.5228 21.9996 42 26.4768 42 31.9996Z" fill="#FFD11A"/>
</svg>
